<svg xmlns="http://www.w3.org/2000/svg" xmlns:xlink="http://www.w3.org/1999/xlink" xmlns:inkscape="http://www.inkscape.org/namespaces/inkscape" version="1.1" width="258" height="199" viewBox="0 0 258 199">
<defs>
<path id="font_1_2" d="M.7599945 .69506838C.7599945 .69807437 .7579956 .7050781 .7489929 .7050781 .74598696 .7050781 .7449951 .70407107 .73399356 .69306948L.6639862 .61602786C.6549988 .6300354 .60899356 .7050781 .49798585 .7050781 .2749939 .7050781 .049987794 .48391725 .049987794 .25172425 .049987794 .08659363 .16799927-.022460938 .32099916-.022460938 .4079895-.022460938 .48399354 .017532349 .5369873 .063583377 .6299896 .14564514 .6469879 .2367096 .6469879 .23971558 .6469879 .24972534 .6369934 .24972534 .6349945 .24972534 .6289978 .24972534 .6239929 .24772644 .621994 .23971558 .61299136 .21069336 .58999636 .13963318 .5209961 .081588748 .45199586 .025543213 .3889923 .008529663 .33699037 .008529663 .24699402 .008529663 .14099121 .060577394 .14099121 .21670532 .14099121 .27374269 .1619873 .43588258 .2619934 .55296328 .32299806 .62402346 .4169922 .67407229 .5059967 .67407229 .60798647 .67407229 .6669922 .5970001 .6669922 .48091126 .6669922 .44088746 .6639862 .43988038 .6639862 .4298706 .6639862 .41986085 .6749878 .41986085 .67900088 .41986085 .69200137 .41986085 .69200137 .42185975 .69699099 .43988038L.7599945 .69506838Z"/>
<path id="font_2_1" d="M.41299439-1.1491852C.41299439-1.1451874 .41099549-1.1431885 .40899659-1.1401825 .36299134-1.0911713 .29499818-1.0101624 .25299073-.84713748 .22999573-.7561188 .22099304-.65309146 .22099304-.56007388 .22099304-.2970276 .28399659-.11299133 .4039917 .017044068 .41299439 .026031495 .41299439 .028030396 .41299439 .030029297 .41299439 .040039064 .40499879 .040039064 .40098573 .040039064 .38598634 .040039064 .33198548-.019973755 .31900025-.034973146 .21699524-.1559906 .1519928-.33602906 .1519928-.5590668 .1519928-.7010956 .1769867-.9021454 .30799867-1.071167 .31799317-1.0831757 .3829956-1.1591797 .40098573-1.1591797 .40499879-1.1591797 .41299439-1.1591797 .41299439-1.1491852Z"/>
<path id="font_1_1" d="M.1789856 .114868167C.13899231 .047973634 .099990848 .033981325 .055999757 .0309906 .04399109 .02999878 .034988405 .02999878 .034988405 .010986328 .034988405 .004989624 .039993287 0 .04798889 0 .07499695 0 .10598755 .0029907227 .13398743 .0029907227 .16699219 .0029907227 .20199585 0 .23399353 0 .23999024 0 .25299073 0 .25299073 .018997193 .25299073 .02999878 .24398804 .0309906 .23699951 .0309906 .21398926 .032989503 .18998719 .04096985 .18998719 .06593323 .18998719 .077926639 .19599915 .088897708 .20399475 .102890018L.27999879 .23068238H.5309906C.5329895 .2097168 .5469971 .07392883 .5469971 .063949588 .5469971 .033981325 .49499513 .0309906 .47499085 .0309906 .46099855 .0309906 .45098878 .0309906 .45098878 .010986328 .45098878 0 .46299745 0 .46499635 0 .5059967 0 .548996 .0029907227 .58999636 .0029907227 .61499026 .0029907227 .6779938 0 .7029877 0 .70899966 0 .72099307 0 .72099307 .019989014 .72099307 .0309906 .71099856 .0309906 .69799807 .0309906 .6359863 .0309906 .6359863 .037979127 .6329956 .06694031L.57199099 .691803C.56999209 .71180728 .56999209 .7158203 .5529938 .7158203 .5369873 .7158203 .5329895 .7088165 .5269928 .69880679L.1789856 .114868167M.29899598 .26168824 .49598695 .5917816 .5279999 .26168824H.29899598Z"/>
<path id="font_3_1" d="M.48599244 .6046295C.49299623 .63360598 .49499513 .63661196 .5169983 .63861086 .5219879 .63960269 .5569916 .63960269 .57699587 .63960269 .6380005 .63960269 .6639862 .63960269 .68899539 .63160708 .73399356 .61761477 .73599246 .5886383 .73599246 .5526581 .73599246 .53666689 .73599246 .52368167 .72898867 .4717102L.72698977 .46072389C.72698977 .45072938 .73399356 .4457245 .74398806 .4457245 .7589874 .4457245 .7609863 .45472718 .7630005 .47071839L.7899933 .66160586C.7899933 .6756134 .7779999 .6756134 .7599945 .6756134H.14498902C.11999512 .6756134 .117996219 .6756134 .11099243 .65460208L.04798889 .4777069C.04699707 .4737091 .042999269 .46472169 .042999269 .4597168 .042999269 .455719 .04499817 .4457245 .05999756 .4457245 .07299805 .4457245 .07499695 .45072938 .08099365 .4697113 .13899231 .62960818 .17199707 .63960269 .32398988 .63960269H.3659973C.3959961 .63960269 .39698792 .63861086 .39698792 .62960818 .39698792 .62861636 .39698792 .62361147 .3929901 .6086273L.26098634 .082962039C.2519989 .04598999 .24899292 .035995485 .14399719 .035995485 .10798645 .035995485 .09899902 .035995485 .09899902 .01399231 .09899902 .010986328 .100997928 0 .115997318 0 .14399719 0 .17399597 .0029907227 .20199585 .0029907227 .22999573 .0029907227 .2599945 .0039978029 .28799439 .0039978029 .31599427 .0039978029 .34999085 .0039978029 .37799073 .0029907227 .40499879 .0019989014 .43499757 0 .46199037 0 .46998597 0 .4850006 0 .4850006 .021987915 .4850006 .035995485 .47499085 .035995485 .44400025 .035995485 .4249878 .035995485 .40499879 .036987306 .38598634 .037994386 .35198976 .040985109 .34999085 .04498291 .34999085 .05697632 .34999085 .0639801 .34999085 .065979007 .35398866 .07997131L.48599244 .6046295Z"/>
<path id="font_2_2" d="M.30499269-.56007388C.30499269-.41804505 .27999879-.2170105 .14898682-.047973634 .13899231-.035964967 .07398987 .040039064 .055999757 .040039064 .050994874 .040039064 .04399109 .038024904 .04399109 .030029297 .04399109 .026031495 .04598999 .023025513 .049987794 .02003479 .09799194-.031967164 .16299439-.11299133 .20399475-.27201844 .22698975-.3630371 .23599243-.4660492 .23599243-.5590668 .23599243-.6600952 .22698975-.7621155 .20098877-.86013796 .16299439-1.0001679 .10398865-1.0801697 .052993776-1.1361847 .04399109-1.1451874 .04399109-1.1471863 .04399109-1.1491852 .04399109-1.1571808 .050994874-1.1591797 .055999757-1.1591797 .070999149-1.1591797 .12599182-1.098175 .13798523-1.0841827 .23999024-.96315 .30499269-.7831116 .30499269-.56007388Z"/>
<path id="font_4_72" d="M.29899598 0V.04899597H.23098755V.69433596L.051986696 .6855469V.63653567C.11199951 .63653567 .11999512 .63653567 .11999512 .5975647V.04899597H.051986696V0L.1749878 .0029907227 .29899598 0Z"/>
<path id="font_4_50" d="M.5089874 .11605835C.5089874 .13604737 .4889984 .13604737 .48298646 .13604737 .46499635 .13604737 .46299745 .13005066 .45700074 .11605835 .43399049 .06410217 .37298585 .037139894 .30999757 .037139894 .16799927 .037139894 .1659851 .16601563 .1659851 .21496582H.47599793C.49699403 .21496582 .5089874 .21496582 .5089874 .2429657 .5089874 .26498414 .5069885 .35305787 .44198609 .4071045 .39698792 .4441223 .33699037 .453125 .28799439 .453125 .116989139 .453125 .032989503 .345047 .032989503 .22497559 .032989503 .09408569 .13198853-.005859375 .3019867-.005859375 .46699525-.005859375 .5089874 .1000824 .5089874 .11605835M.41099549 .25097657H.1659851C.16799927 .29701234 .17298889 .41311646 .28799439 .41311646 .40499879 .41311646 .40899659 .29100038 .41099549 .25097657Z"/>
<path id="font_4_55" d="M.45098878 .6111908C.45098878 .65615847 .4119873 .70014956 .33399964 .70014956 .22898865 .70014956 .12098694 .65515139 .12098694 .5432434V.44433595H.04399109V.3953247H.12098694V.04899597H.052993776V0L.18099976 .0029907227C.20599365 .0029907227 .2639923 .0029907227 .31698609 0V.04899597H.23199463V.3953247H.35099793V.44433595H.22599793V.5432434C.22599793 .65216067 .3039856 .66015627 .32899476 .66015627 .33198548 .66015627 .34199525 .65815737 .34199525 .65815737 .34199525 .65815737 .34199525 .65615847 .33999635 .65415957 .32899476 .6411438 .32398988 .6271515 .32398988 .611145 .32398988 .56915286 .35798646 .54714968 .3869934 .54714968 .41999818 .54714968 .45098878 .57115176 .45098878 .611145V.6111908Z"/>
<path id="font_4_105" d="M.3929901 .123184207V.1762085H.34199525V.12617493C.34199525 .055145265 .30599977 .037139894 .2809906 .037139894 .22299195 .037139894 .22299195 .09716797 .22299195 .1211853V.3953247H.37399293V.44433595H.22299195V.6357422H.17199707C.17098999 .5415344 .12399292 .43832398 .021987915 .43533326V.3953247H.10598755V.123184207C.10598755 .009140015 .20498657-.005859375 .2669983-.005859375 .34498597-.005859375 .3929901 .05014038 .3929901 .123184207Z"/>
<path id="font_4_77" d="M.6299896-.0002746582V.048721315H.56199648V.30471803C.56199648 .4237213 .48999024 .4497223 .40299989 .4497223 .27999879 .4497223 .23098755 .35972596 .22399903 .34472657H.22299195V.4497223L.049987794 .44172669V.39271546C.10998535 .39271546 .117996219 .39271546 .117996219 .353714V.048721315H.049987794V-.0002746582L.17599488 .0027160645 .30299378-.0002746582V.048721315H.23498535V.25372315C.23498535 .36572267 .32699586 .40971376 .3869934 .40971376 .4249878 .40971376 .44499208 .38871766 .44499208 .3137207V.048721315H.3769989V-.0002746582L.5029907 .0027160645 .6299896-.0002746582Z"/>
<path id="font_4_109" d="M.6299896 0V.04899597C.56999209 .04899597 .56199648 .04899597 .56199648 .088012699V.4501953L.3769989 .4423828V.39337159C.43699647 .39337159 .44499208 .39337159 .44499208 .35437013V.16433716C.44499208 .08433533 .3929901 .03413391 .31599427 .03413391 .23899842 .03413391 .23498535 .056259157 .23498535 .10932922V.4501953L.049987794 .4423828V.39337159C.10998535 .39337159 .117996219 .39337159 .117996219 .35437013V.12333679C.117996219 .014129639 .20399475-.005859375 .30099488-.005859375 .33198548-.005859375 .3999939-.005859375 .45098878 .06933594V-.005859375L.6299896 0Z"/>
<path id="font_4_98" d="M.4269867 .14027405C.4269867 .19128418 .397995 .22328186 .37998963 .23828125 .33499146 .27627564 .30299378 .28128053 .22399903 .294281 .17599488 .3022766 .11299133 .31228639 .11299133 .35728456 .11299133 .41711427 .20599365 .41711427 .22799683 .41711427 .33999635 .41711427 .34399415 .35827638 .34599305 .33128358 .34700013 .3173828 .36099244 .3173828 .37098695 .3173828 .3959961 .3173828 .39698792 .32237245 .39698792 .3463745V.42411805C.39698792 .4421234 .39698792 .453125 .3769989 .453125 .36698915 .453125 .35099793 .44511415 .33299256 .43511964 .30099488 .44911195 .2619934 .453125 .22898865 .453125 .19799805 .4532776 .038986207 .4532776 .038986207 .32128907 .038986207 .2162323 .16999817 .19421387 .20498657 .18821717 .2869873 .1742096 .35299684 .16320801 .35299684 .106170658 .35299684 .03413391 .25898744 .03413391 .23699951 .03413391 .18598938 .03413391 .12098694 .0471344 .09199524 .13919068 .08699036 .15620423 .085998538 .15919495 .06498718 .15919495 .038986207 .15919495 .038986207 .15319824 .038986207 .12918091V.023132325C.038986207 .005126953 .038986207-.005859375 .05899048-.005859375 .06599426-.005859375 .067993167-.005859375 .08999634 .008132935L.116989139 .025131226C.1639862-.005859375 .21699524-.005859375 .23699951-.005859375 .2669983-.005859375 .4269867-.005859375 .4269867 .1401825V.14027405Z"/>
<path id="font_4_84" d="M.61698916 .22218323C.61698916 .354187 .526001 .4501953 .375 .4501953 .2939911 .45033265 .23899842 .41633607 .21998596 .40234376V.4501953L.040985109 .4423828V.39337159C.06098938 .39337159 .07699585 .39337159 .08999634 .39038087 .10899353 .38737489 .10899353 .3763733 .10899353 .3553772V-.14453125H.040985109V-.19354248L.16699219-.1905365 .2939911-.19354248V-.14453125H.22599793V.03942871C.2849884-.005859375 .33999635-.005859375 .35899354-.005859375 .5159912-.005859375 .61698916 .089141849 .61698916 .22216797V.22218323M.48399354 .22315979C.48399354 .08413696 .41299439 .03413391 .34700013 .03413391 .29599 .03413391 .25299073 .06314087 .22599793 .104141239V.34518434C.24398804 .3671875 .29100038 .4071808 .35899354 .4071808 .42900086 .4071808 .48399354 .34518434 .48399354 .22315979Z"/>
<path id="font_4_28" d="M.56900027 .025131226C.56900027 .0491333 .5529938 .0491333 .54299929 .0491333 .47898866 .050125123 .47898866 .060134889 .47898866 .08413696V.29812623C.47898866 .38612367 .40699769 .453125 .25299073 .453125 .19599915 .453125 .067993167 .45111085 .067993167 .3591156 .067993167 .31411744 .101989749 .29312135 .1329956 .29312135 .16699219 .29312135 .19799805 .3171234 .19799805 .35812379 .19799805 .38711549 .18099976 .40411378 .17799378 .40711976 .18798828 .40911866 .21199036 .41311646 .24899292 .41311646 .32099916 .41311646 .3619995 .37712098 .3619995 .29812623V.26612855C.19599915 .26612855 .027999878 .22312927 .027999878 .11213684 .027999878 .013137817 .15299988-.005859375 .22499085-.005859375 .30099488-.005859375 .35299684 .027130127 .37998963 .0741272 .37998963 .04798889 .37998963 0 .4869995 0H.5359955C.5549927 0 .56900027 0 .56900027 .024993897V.025131226M.3619995 .13899231C.3619995 .033996583 .24598694 .033996583 .24198914 .033996583 .19099427 .033996583 .14898682 .066986087 .14898682 .11199951 .14898682 .14498902 .16699219 .22299195 .3619995 .23199463V.13899231Z"/>
<path id="font_4_43" d="M.49198915 .11613464C.49198915 .13212586 .47698976 .13212586 .46598817 .13212586 .44599916 .13212586 .44599916 .13113404 .43798829 .11312866 .41799928 .06512451 .37298585 .037139894 .31399537 .037139894 .17199707 .037139894 .17199707 .18112183 .17199707 .22612 .17199707 .28611756 .17298889 .41011048 .3039856 .41011048 .31098939 .41011048 .36499024 .40911866 .36499024 .40411378L.3619995 .39912416C.35299684 .38812257 .34899903 .3721161 .34899903 .35812379 .34899903 .3171234 .37998963 .29312135 .4139862 .29312135 .44499208 .29312135 .47898866 .31411744 .47898866 .3591156 .47898866 .453125 .33898927 .453125 .2999878 .453125 .10798645 .453125 .038986207 .33111573 .038986207 .22212219 .038986207 .09613037 .1289978-.005859375 .29499818-.005859375 .33198548-.005859375 .3809967 .0001373291 .4229889 .026138306 .47999574 .06098938 .49198915 .11299133 .49198915 .115997318V.11613464Z"/>
<path id="font_4_42" d="M.7879944 .22825623C.7879944 .2502594 .7779999 .2502594 .7619934 .2502594 .7509918 .2502594 .73799136 .2502594 .7369995 .23426819 .72898867 .089263919 .59599307 .03727722 .5009918 .03727722 .44699098 .03727722 .34999085 .04827881 .2829895 .12226868 .22999573 .18226624 .22299195 .2752533 .22299195 .34326173 .22299195 .46324159 .24699402 .52323916 .28799439 .5692444 .33499146 .62223818 .41600038 .64923098 .49899293 .64923098 .58699038 .64923098 .7029877 .5962372 .72898867 .43725587 .73098757 .42425538 .7429962 .42425538 .7579956 .42425538 .7849884 .42425538 .7879944 .42625428 .7879944 .45324708V.6692352C.7879944 .6872406 .7879944 .6982422 .7679901 .6982422 .7579956 .6982422 .7559967 .696228 .746994 .6882324L.68099978 .63023379C.6239929 .676239 .5509949 .6982422 .47799684 .6982422 .21998596 .6982422 .06599426 .5462494 .06599426 .34326173 .06599426 .14526367 .21398926-.01171875 .47898866-.01171875 .6669922-.01171875 .7879944 .10827637 .7879944 .22825623Z"/>
<path id="font_4_81" d="M.55799868 .21812439C.55799868 .3491211 .46598817 .453125 .29599 .453125 .11999512 .453125 .032989503 .3441162 .032989503 .21812439 .032989503 .09413147 .12298584-.005859375 .29499818-.005859375 .47399903-.005859375 .55799868 .09913635 .55799868 .21812439M.4249878 .22912598C.4249878 .14312744 .4249878 .037139894 .29599 .037139894 .1659851 .037139894 .1659851 .14213562 .1659851 .22912598 .1659851 .3131256 .1659851 .41311646 .29499818 .41311646 .4249878 .41311646 .4249878 .3131256 .4249878 .22912598Z"/>
<path id="font_4_75" d="M.95899966-.0002746582V.048721315H.8909912V.30471803C.8909912 .42271424 .81999209 .4497223 .7319946 .4497223 .6279907 .4497223 .57699587 .38671876 .55799868 .3557129 .5359955 .4457245 .44799806 .4497223 .4039917 .4497223 .27999879 .4497223 .23098755 .35972596 .22399903 .34472657H.22299195V.4497223L.049987794 .44172669V.39271546C.10998535 .39271546 .117996219 .39271546 .117996219 .353714V.048721315H.049987794V-.0002746582L.17599488 .0027160645 .30299378-.0002746582V.048721315H.23498535V.25372315C.23498535 .36471559 .32699586 .40971376 .3869934 .40971376 .4249878 .40971376 .44599916 .38972474 .44599916 .3137207V.048721315H.37799073V-.0002746582L.5039978 .0027160645 .6309967-.0002746582V.048721315H.5629883V.25372315C.5629883 .36471559 .6549988 .40971376 .71499636 .40971376 .7529907 .40971376 .7739868 .38972474 .7739868 .3137207V.048721315H.70599368V-.0002746582L.83200076 .0027160645 .95899966-.0002746582Z"/>
<path id="font_4_97" d="M.58999636 .20326233C.58999636 .31129457 .5089874 .39413453 .4139862 .4141388L.2689972 .44514466C.16799927 .46714784 .16499329 .5341797 .16499329 .54818728 .16499329 .59521487 .19599915 .65322878 .29699708 .65322878 .45498658 .65322878 .49398805 .5451813 .5049896 .4791565 .5079956 .46315003 .5079956 .45814515 .5309906 .45814515 .55599978 .45814515 .5569916 .46315003 .5569916 .48716737V.6692352C.5569916 .6872406 .5569916 .6982422 .5369873 .6982422 .5279999 .6982422 .5269928 .6972351 .5149994 .6862335L.47099305 .64323428C.4149933 .6872406 .34999085 .6982422 .29599 .6982422 .13598633 .6982422 .06599426 .59721377 .06599426 .49716188 .06599426 .42514039 .10699463 .37913514 .115997318 .36914063 .17098999 .31428529 .20399475 .30729676 .30799867 .2853546 .32398988 .2823639 .33999635 .27937318 .35499574 .27539063 .4139862 .26338197 .43099977 .26037599 .46398927 .2263794 .46499635 .22436524 .4909973 .1972351 .4909973 .15322876 .4909973 .13323975 .4850006 .03727722 .35598756 .03727722 .29599 .03727722 .125 .04826355 .116989139 .20426941 .115997318 .22236634 .115997318 .2283783 .09199524 .2283783 .06599426 .2283783 .06599426 .22236634 .06599426 .19824219V.01727295C.06599426-.0007324219 .06599426-.01171875 .085998538-.01171875 .09399414-.011932373 .09599304-.011932373 .10499573-.0029296876 .11099243 .0010681152 .1329956 .026062012 .1519928 .04206848 .21299744-.0017242432 .3019867-.01171875 .35699464-.01171875 .526001-.01171875 .58999636 .10028076 .58999636 .20327759V.20326233Z"/>
<path id="font_4_95" d="M.8829956 .09687805C.8829956 .11882019 .8679962 .12080383 .8569946 .12080383 .83399966 .12080383 .83299258 .10684204 .83200076 .09687805 .82699587 .04798889 .79599 .027999878 .7679901 .027999878 .70799258 .027999878 .69999697 .087890628 .6879883 .17367554 .6769867 .2474823 .66999819 .30134584 .57099917 .3383026 .6559906 .3623047 .73799136 .41534425 .73799136 .49942018 .73799136 .60450747 .6199951 .6855469 .43099977 .6855469H.041992189V.63653567H.1499939V.04899597H.041992189V0C.07798767 .0029907227 .17799378 .0029907227 .21899414 .0029907227 .2599945 .0029907227 .36099244 .0029907227 .39698792 0V.04899597H.2889862V.32229615H.4119873C.45298768 .32229615 .47999574 .31332398 .5089874 .2834015 .5369873 .25546266 .5369873 .23153687 .5369873 .16470337 .5369873 .10185242 .5369873 .054977418 .5970001 .019989014 .6409912-.005004883 .70399478-.012008667 .7589874-.012008667 .8659973-.012008667 .8829956 .074920658 .8829956 .09687805M.58099368 .49942018C.58099368 .44236756 .57899478 .3623047 .41299439 .3623047H.2889862V.63653567H.4149933C.5779877 .63653567 .58099368 .5594635 .58099368 .49942018Z"/>
<path id="font_4_114" d="M.8279877 .3953247V.44433595C.7999878 .44132997 .7749939 .44132997 .7480011 .44132997 .71598818 .44132997 .68499758 .44232179 .6529999 .44433595V.3953247C.66600039 .3953247 .68899539 .3953247 .70899966 .38632203 .70700076 .37832643 .70700076 .37731935 .70399478 .37031556L.59799197 .11618042 .48199464 .3953247H.5359955V.44433595L.42399598 .44132997C.4139862 .44132997 .36499024 .44132997 .32199098 .44433595V.3953247H.37998963C.3929901 .36631776 .3929901 .36431886 .39898683 .3493042L.31199647 .13919068 .20498657 .3953247H.25898744V.44433595L.13699341 .44132997C.11399841 .44132997 .07699585 .44132997 .025985718 .44433595V.3953247H.083999637L.23999024 .021118164C.25099183-.0048828127 .2669983-.0048828127 .2789917-.0048828127 .30599977-.0048828127 .31098939 .0061187746 .31799317 .023132325L.4269867 .28326417 .5359955 .021118164C.5469971-.0048828127 .56199648-.0048828127 .57499697-.0048828127 .58699038-.0048828127 .6029968-.0048828127 .6139984 .021118164L.7609863 .37332154C.7679901 .389328 .769989 .3953247 .8279877 .3953247Z"/>
<path id="font_5_1" d="M.33099366-.2400055C.33099366-.23701477 .33099366-.23500061 .31399537-.21800232 .18899536-.0920105 .15699768 .09700012 .15699768 .25 .15699768 .42399598 .19499207 .59799197 .31799317 .72299197 .33099366 .73498538 .33099366 .7369995 .33099366 .73999026 .33099366 .746994 .32699586 .75 .32099916 .75 .31098939 .75 .22099304 .6819916 .1619873 .5549927 .11099243 .44499208 .09899902 .33399964 .09899902 .25 .09899902 .17199707 .10998535 .050994874 .16499329-.06201172 .22499085-.18501282 .31098939-.25 .32099916-.25 .32699586-.25 .33099366-.24700928 .33099366-.2400055Z"/>
<path id="font_5_2" d="M.2889862 .25C.2889862 .32798768 .27799989 .44898988 .22299195 .56199648 .16299439 .68499758 .07699585 .75 .066986087 .75 .06098938 .75 .056991579 .74598696 .056991579 .73999026 .056991579 .7369995 .056991579 .73498538 .07598877 .71699526 .17399597 .6179962 .23098755 .45899964 .23098755 .25 .23098755 .07899475 .19400025-.09700012 .069992069-.2230072 .056991579-.23500061 .056991579-.23701477 .056991579-.2400055 .056991579-.2460022 .06098938-.25 .066986087-.25 .07699585-.25 .16699219-.18200684 .22599793-.055007936 .2769928 .054992677 .2889862 .16600037 .2889862 .25Z"/>
<path id="font_1_3" d="M.7559967 .577652C.7659912 .61763 .7839966 .64860537 .8639984 .6516113 .86898806 .6516113 .8809967 .65260317 .8809967 .6716156 .8809967 .6726074 .8809967 .6826172 .8679962 .6826172 .83499148 .6826172 .7999878 .6796112 .7669983 .6796112 .73298647 .6796112 .69799807 .6826172 .6649933 .6826172 .6589966 .6826172 .6469879 .6826172 .6469879 .6626129 .6469879 .6516113 .6569977 .6516113 .6649933 .6516113 .7220001 .65060427 .73298647 .6296234 .73298647 .6076355 .73298647 .6046295 .73098757 .5896454 .7299957 .5866394L.6179962 .141922 .39698792 .66360476C.3889923 .6816101 .3880005 .6826172 .36499024 .6826172H.23098755C.21099854 .6826172 .20199585 .6826172 .20199585 .6626129 .20199585 .6516113 .21099854 .6516113 .22999573 .6516113 .23498535 .6516113 .2979889 .6516113 .2979889 .64260867L.1639862 .10594177C.1539917 .065963748 .13699341 .033996583 .055999757 .0309906 .049987794 .0309906 .038986207 .02999878 .038986207 .010986328 .038986207 .0039978029 .04399109 0 .051986696 0 .083999637 0 .11898804 .0029907227 .1519928 .0029907227 .18598938 .0029907227 .22200012 0 .25498963 0 .2599945 0 .272995 0 .272995 .019989014 .272995 .02999878 .2639923 .0309906 .25299073 .0309906 .19499207 .032989503 .18699646 .054977418 .18699646 .07496643 .18699646 .081954959 .18798828 .08695984 .19099427 .09794617L.32299806 .6256256C.32699586 .6196289 .32699586 .61763 .33198548 .6076355L.58099368 .018997193C.58799746 .0019989014 .59098818 0 .59999087 0 .61099246 0 .61099246 .0029907227 .6159973 .020996094L.7559967 .577652Z"/>
<path id="font_6_47" d="M.5269928 0V.0309906C.45700074 .0309906 .44898988 .038009645 .44898988 .0871582V.69433596L.30499269 .6826172V.6516113C.375 .6516113 .3829956 .64463809 .3829956 .59580996V.38035584C.35398866 .41636659 .31098939 .4423828 .25698854 .4423828 .13899231 .4423828 .033996583 .3443451 .033996583 .21531677 .033996583 .088272098 .13198853-.0107421879 .24598694-.0107421879 .30999757-.0107421879 .35499574 .023254395 .37998963 .055267335V-.0107421879L.5269928 0M.37998963 .117996219C.37998963 .099990848 .37998963 .09799194 .36898805 .08099365 .33898927 .033218385 .2939911 .011245728 .25099183 .011245728 .20599365 .011245728 .16999817 .037216188 .1459961 .075164798 .11999512 .1161499 .116989139 .17320252 .116989139 .21421814 .116989139 .25125123 .11898804 .31129457 .147995 .35632325 .16899109 .38734437 .20698548 .42037965 .26098634 .42037965 .29599 .42037965 .33799745 .405365 .36898805 .3603363 .37998963 .34332276 .37998963 .34132386 .37998963 .32330323V.117996219Z"/>
<path id="font_6_66" d="M.24699402 0V.0309906C.18099976 .0309906 .1769867 .035995485 .1769867 .075042728V.4423828L.036987306 .43066407V.3996582C.101989749 .3996582 .11099243 .3936615 .11099243 .3447113V.07595825C.11099243 .0309906 .099990848 .0309906 .032989503 .0309906V0L.14299011 .0029907227C.17799378 .0029907227 .21299744 .0009918213 .24699402 0M.19198609 .603775C.19198609 .6307678 .16899109 .6567688 .13899231 .6567688 .10499573 .6567688 .084991458 .6287689 .084991458 .603775 .084991458 .57676699 .10798645 .55078127 .13798523 .55078127 .17199707 .55078127 .19198609 .5787811 .19198609 .603775Z"/>
<path id="font_6_75" d="M.8129883 0V.0309906C.7609863 .0309906 .73599246 .0309906 .7350006 .061019899V.25221253C.7350006 .3383026 .7350006 .36932374 .70399478 .405365 .6899872 .42237855 .6569977 .4423828 .598999 .4423828 .5149994 .4423828 .47099305 .38233949 .45399476 .34429933 .43998719 .43138124 .3659973 .4423828 .32099916 .4423828 .24798584 .4423828 .20098877 .39935304 .17298889 .33729554V.4423828L.03199768 .43066407V.3996582C.101989749 .3996582 .10998535 .39266969 .10998535 .34370423V.07595825C.10998535 .0309906 .09899902 .0309906 .03199768 .0309906V0L.14498902 .0029907227 .25698854 0V.0309906C.18998719 .0309906 .1789856 .0309906 .1789856 .07595825V.25978089C.1789856 .36431886 .25 .42037965 .31399537 .42037965 .3769989 .42037965 .3880005 .36631776 .3880005 .30926515V.076034549C.3880005 .0309906 .3769989 .0309906 .30999757 .0309906V0L.4229889 .0029907227 .5349884 0V.0309906C.46798707 .0309906 .45700074 .0309906 .45700074 .076034549V.2602234C.45700074 .36431886 .5279999 .42037965 .59199526 .42037965 .6549988 .42037965 .66600039 .36631776 .66600039 .30926515V.076034549C.66600039 .0309906 .6549988 .0309906 .58799746 .0309906V0L.70098879 .0029907227 .8129883 0Z"/>
<path id="font_6_96" d="M.3639984 .38137818C.3639984 .41337586 .33299256 .4423828 .2899933 .4423828 .21699524 .4423828 .18099976 .37538148 .16699219 .3323822V.4423828L.027999878 .43066407V.3996582C.09799194 .3996582 .10598755 .39266969 .10598755 .34370423V.07595825C.10598755 .0309906 .09498596 .0309906 .027999878 .0309906V0L.14199829 .0029907227C.18199158 .0029907227 .22898865 .0029907227 .2689972 0V.0309906H.24798584C.17399597 .0309906 .17199707 .04197693 .17199707 .07795715V.23181153C.17199707 .33137513 .21398926 .42037965 .2899933 .42037965 .29699708 .42037965 .29899598 .42037965 .30099488 .41937257 .2979889 .41838075 .27799989 .40637208 .27799989 .3803711 .27799989 .35237123 .29899598 .33737184 .32099916 .33737184 .33898927 .33737184 .3639984 .3493805 .3639984 .38137818Z"/>
<path id="font_6_77" d="M.5349884 0V.0309906C.48298646 .0309906 .45799256 .0309906 .45700074 .061019899V.25221253C.45700074 .3383026 .45700074 .36932374 .42599488 .405365 .4119873 .42237855 .3789978 .4423828 .32099916 .4423828 .24798584 .4423828 .20098877 .39935304 .17298889 .33729554V.4423828L.03199768 .43066407V.3996582C.101989749 .3996582 .10998535 .39266969 .10998535 .34370423V.07595825C.10998535 .0309906 .09899902 .0309906 .03199768 .0309906V0L.14498902 .0029907227 .25698854 0V.0309906C.18998719 .0309906 .1789856 .0309906 .1789856 .07595825V.25978089C.1789856 .36431886 .25 .42037965 .31399537 .42037965 .3769989 .42037965 .3880005 .36631776 .3880005 .30926515V.076034549C.3880005 .0309906 .3769989 .0309906 .30999757 .0309906V0L.4229889 .0029907227 .5349884 0Z"/>
<path id="font_6_64" d="M.27598573 .18710327V.24511719H.010986328V.18710327H.27598573Z"/>
<path id="font_7_1" d="M.16999817 .1111145C.1349945 .05203247 .100997928 .03199768 .052993776 .0289917 .041992189 .027999878 .033996583 .027999878 .033996583 .009994507 .033996583 .0039978029 .038986207 0 .04598999 0 .06399536 0 .10899353 .0019989014 .1269989 .0019989014 .1559906 .0019989014 .18798828 0 .21598816 0 .22200012 0 .23399353 0 .23399353 .018997193 .23399353 .027999878 .22599793 .0289917 .21998596 .0289917 .19699097 .0309906 .17799378 .039001466 .17799378 .06304932 .17799378 .07707214 .18399048 .08808899 .19699097 .11012268L.272995 .23632813H.5279999C.5289917 .22731018 .5289917 .21929932 .5299988 .21028137 .5329895 .18423462 .54499819 .080078128 .54499819 .061050416 .54499819 .0309906 .49398805 .0289917 .47799684 .0289917 .46699525 .0289917 .45599366 .0289917 .45599366 .010986328 .45599366 0 .46499635 0 .47099305 0 .48799134 0 .5079956 .0019989014 .5249939 .0019989014H.58200076C.6429901 .0019989014 .68699648 0 .6879883 0 .69499209 0 .70599368 0 .70599368 .018997193 .70599368 .0289917 .69699099 .0289917 .6819916 .0289917 .6269989 .0289917 .6259918 .038009645 .6230011 .0680542L.56199648 .691864C.55999758 .711853 .55599978 .7138672 .54499819 .7138672 .5349884 .7138672 .5289917 .711853 .519989 .69685366L.16999817 .1111145M.2899933 .26531983 .4909973 .6009674 .5249939 .26531983H.2899933Z"/>
<path id="font_1_5" d="M.08799744 .059265138C.084991458 .044265748 .07899475 .021255494 .07899475 .01625061 .07899475-.0017547608 .09298706-.0107421879 .10798645-.0107421879 .11999512-.0107421879 .13798523-.002746582 .14498902 .01725769 .1459961 .019256592 .1579895 .06626892 .1639862 .091278079L.18598938 .18130493C.19198609 .2033081 .19799805 .22531128 .20298767 .24832154 .20698548 .26531983 .21499634 .29434205 .21598816 .29833985 .23098755 .3293457 .28399659 .42037965 .3789978 .42037965 .42399598 .42037965 .43299867 .38336183 .43299867 .35035707 .43299867 .3253479 .42599488 .29733277 .41799928 .26733399L.3899994 .1512909 .36999513 .07527161C.3659973 .055267335 .35699464 .021255494 .35699464 .01625061 .35699464-.0017547608 .37098695-.0107421879 .38598634-.0107421879 .4169922-.0107421879 .4229889 .014251709 .43099977 .04626465 .44499208 .10227966 .48199464 .24832154 .4909973 .28733827 .49398805 .30033876 .5469971 .42037965 .6559906 .42037965 .69898989 .42037965 .70999148 .3863678 .70999148 .35035707 .70999148 .29333497 .66799929 .17930603 .647995 .12628174 .6389923 .10227966 .6349945 .091278079 .6349945 .0712738 .6349945 .024261475 .66999819-.0107421879 .71699526-.0107421879 .8109894-.0107421879 .84799197 .13528443 .84799197 .14329529 .84799197 .1532898 .83898928 .1532898 .83599856 .1532898 .82598879 .1532898 .82598879 .15029907 .82099917 .13528443 .80599978 .08227539 .7739868 .011245728 .71899417 .011245728 .70199587 .011245728 .69499209 .021255494 .69499209 .044265748 .69499209 .0692749 .70399478 .09327698 .71299746 .11528015 .7319946 .16729737 .7739868 .27833558 .7739868 .3353424 .7739868 .4003601 .73399356 .4423828 .6589966 .4423828 .58399966 .4423828 .5329895 .3983612 .49598695 .34535218 .49499513 .35835267 .49198915 .3923645 .46398927 .41636659 .43899537 .43737794 .40699769 .4423828 .38198854 .4423828 .2919922 .4423828 .24299622 .37835694 .22599793 .35534669 .22099304 .41236878 .1789856 .4423828 .13398743 .4423828 .08799744 .4423828 .068984989 .4033661 .05999756 .38536073 .041992189 .35035707 .0289917 .29133607 .0289917 .28833009 .0289917 .27833558 .038986207 .27833558 .040985109 .27833558 .050994874 .27833558 .051986696 .2793274 .057998659 .30133058 .07499695 .37236024 .09498596 .42037965 .1309967 .42037965 .14698792 .42037965 .1619873 .41236878 .1619873 .37435914 .1619873 .35334779 .15899658 .3423462 .1459961 .29032899L.08799744 .059265138Z"/>
<path id="font_1_6" d="M.08799744 .059265138C.084991458 .044265748 .07899475 .021255494 .07899475 .01625061 .07899475-.0017547608 .09298706-.0107421879 .10798645-.0107421879 .11999512-.0107421879 .13798523-.002746582 .14498902 .01725769 .1459961 .019256592 .1579895 .06626892 .1639862 .091278079L.18598938 .18130493C.19198609 .2033081 .19799805 .22531128 .20298767 .24832154 .20698548 .26531983 .21499634 .29434205 .21598816 .29833985 .23098755 .3293457 .28399659 .42037965 .3789978 .42037965 .42399598 .42037965 .43299867 .38336183 .43299867 .35035707 .43299867 .28833009 .38398744 .16029358 .36799623 .11727905 .35899354 .0942688 .35798646 .08227539 .35798646 .0712738 .35798646 .024261475 .3929901-.0107421879 .43998719-.0107421879 .5339966-.0107421879 .57099917 .13528443 .57099917 .14329529 .57099917 .1532898 .56199648 .1532898 .5589905 .1532898 .548996 .1532898 .548996 .15029907 .5439911 .13528443 .5239868 .06726074 .4909973 .011245728 .44198609 .011245728 .4249878 .011245728 .41799928 .021255494 .41799928 .044265748 .41799928 .0692749 .4269867 .09327698 .43598939 .11528015 .45498658 .16830445 .49699403 .27833558 .49699403 .3353424 .49699403 .40237428 .45399476 .4423828 .38198854 .4423828 .2919922 .4423828 .24299622 .37835694 .22599793 .35534669 .22099304 .41137696 .17999268 .4423828 .13398743 .4423828 .08799744 .4423828 .068984989 .4033661 .05899048 .38536073 .042999269 .35134889 .0289917 .29232789 .0289917 .28833009 .0289917 .27833558 .038986207 .27833558 .040985109 .27833558 .050994874 .27833558 .051986696 .2793274 .057998659 .30133058 .07499695 .37236024 .09498596 .42037965 .1309967 .42037965 .15098572 .42037965 .1619873 .4073639 .1619873 .37435914 .1619873 .35334779 .15899658 .3423462 .1459961 .29032899L.08799744 .059265138Z"/>
<path id="font_1_4" d="M.375 .6136017C.3809967 .63760378 .38398744 .6476135 .40299989 .65060427 .4119873 .6516113 .44400025 .6516113 .46398927 .6516113 .5349884 .6516113 .6459961 .6516113 .6459961 .5525818 .6459961 .51856997 .6299896 .44955445 .59098818 .41055299 .5649872 .38453675 .5119934 .35253907 .42199708 .35253907H.30999757L.375 .6136017M.5189972 .33953858C.6199951 .3615265 .7389984 .43154908 .7389984 .5325775 .7389984 .61860659 .6489868 .6826172 .5179901 .6826172H.23298645C.21299744 .6826172 .20399475 .6826172 .20399475 .6626129 .20399475 .6516113 .21299744 .6516113 .23199463 .6516113 .23399353 .6516113 .25299073 .6516113 .269989 .6496124 .28799439 .6476135 .29699708 .64660647 .29699708 .63360598 .29699708 .62960818 .29599 .6266022 .29299928 .6145935L.15899658 .07752991C.14898682 .038528444 .14698792 .030532837 .067993167 .030532837 .049987794 .030532837 .040985109 .030532837 .040985109 .010528564 .040985109-.00047302247 .052993776-.00047302247 .054992677-.00047302247 .08299255-.00047302247 .15299988 .002532959 .18099976 .002532959 .20899964 .002532959 .27999879-.00047302247 .30799867-.00047302247 .31599427-.00047302247 .32798768-.00047302247 .32798768 .01953125 .32798768 .030532837 .31900025 .030532837 .2999878 .030532837 .2630005 .030532837 .23498535 .030532837 .23498535 .048538209 .23498535 .054534913 .23699951 .059524537 .23799134 .0655365L.3039856 .3305359H.4229889C.5139923 .3305359 .5319977 .27453614 .5319977 .23953247 .5319977 .22453308 .5239868 .19352722 .5179901 .17053223 .5109863 .14253235 .5019989 .105529788 .5019989 .08552551 .5019989-.022460938 .621994-.022460938 .6349945-.022460938 .7200012-.022460938 .7549896 .07853699 .7549896 .0925293 .7549896 .104537967 .74398806 .104537967 .7429962 .104537967 .73399356 .104537967 .7319946 .09753418 .7299957 .090530399 .7049866 .016525269 .6619873-.00047302247 .6389923-.00047302247 .60598757-.00047302247 .598999 .021530152 .598999 .060531618 .598999 .091537479 .6049957 .14253235 .60899356 .17453003 .61099246 .1885376 .61299136 .20753479 .61299136 .2215271 .61299136 .2985382 .54599 .3295288 .5189972 .33953858Z"/>
<path id="font_3_3" d="M.12199402 .06324768C.117996219 .050247194 .11199951 .025222779 .11199951 .022232056 .11199951 .00022888184 .12998963-.009765625 .1459961-.009765625 .1639862-.009765625 .17999268 .0032196046 .18499756 .01222229 .18998719 .021224976 .19799805 .053237916 .20298767 .07424927 .20799256 .09326172 .21899414 .13928223 .22499085 .16429138 .23098755 .18629456 .23699951 .20831299 .24198914 .23132324 .25299073 .27233888 .25498963 .28033448 .28399659 .32136537 .31199647 .3613739 .35899354 .4133911 .43399049 .4133911 .49198915 .4133911 .49299623 .36238099 .49299623 .34336854 .49299623 .28334046 .44999696 .17228699 .43399049 .13027954 .4229889 .102264408 .4189911 .09326172 .4189911 .07624817 .4189911 .023223877 .46299745-.009765625 .5139923-.009765625 .6139984-.009765625 .6579895 .12828064 .6579895 .14328003 .6579895 .15628052 .644989 .15628052 .6419983 .15628052 .6279907 .15628052 .6269989 .15028382 .6230011 .13928223 .59999087 .059249879 .5569916 .018234253 .5169983 .018234253 .49598695 .018234253 .49198915 .032226564 .49198915 .053237916 .49198915 .07624817 .49699403 .089263919 .5149994 .13427735 .5269928 .1652832 .56799319 .2713318 .56799319 .32736207 .56799319 .4243927 .4909973 .44140626 .43798829 .44140626 .35499574 .44140626 .29899598 .39038087 .2689972 .3503723 .2619934 .41940309 .20298767 .44140626 .1619873 .44140626 .11898804 .44140626 .09599304 .4104004 .08299255 .38739015 .06098938 .3503723 .04699707 .29335023 .04699707 .28834535 .04699707 .27534486 .06098938 .27534486 .06399536 .27534486 .07798767 .27534486 .07899475 .27833558 .085998538 .3053589 .100997928 .36437989 .11999512 .4133911 .15899658 .4133911 .18499756 .4133911 .19198609 .39138795 .19198609 .36437989 .19198609 .34536744 .18299866 .3083496 .17599488 .28134156 .16899109 .2543335 .15899658 .21331787 .1539917 .19129944L.12199402 .06324768Z"/>
<path id="font_3_2" d="M.43399049 .08125305C.42900086 .06124878 .41999818 .027236939 .41999818 .022232056 .41999818 .00022888184 .43798829-.009765625 .45399476-.009765625 .47200013-.009765625 .48799134 .0032196046 .49299623 .01222229 .49798585 .021224976 .5059967 .053237916 .5109863 .07424927 .5159912 .09326172 .5269928 .13928223 .5329895 .16429138 .5389862 .18629456 .54499819 .20831299 .5499878 .23132324 .5609894 .27433778 .5609894 .27633668 .58099368 .3073578 .61299136 .35636903 .6629944 .4133911 .7409973 .4133911 .7969971 .4133911 .7999878 .36738587 .7999878 .34336854 .7999878 .28334046 .7569885 .17228699 .7409973 .13027954 .7299957 .102264408 .7259979 .09326172 .7259979 .07624817 .7259979 .023223877 .769989-.009765625 .82099917-.009765625 .92099-.009765625 .96499636 .12828064 .96499636 .14328003 .96499636 .15628052 .95199587 .15628052 .94898989 .15628052 .93499758 .15628052 .9339905 .15028382 .9299927 .13928223 .9069977 .059249879 .8639984 .018234253 .82398989 .018234253 .8029938 .018234253 .798996 .032226564 .798996 .053237916 .798996 .07624817 .80400088 .089263919 .82199099 .13427735 .83399966 .1652832 .875 .2713318 .875 .32736207 .875 .34336854 .875 .38539125 .83799746 .4143982 .82099917 .42739869 .7919922 .44140626 .7449951 .44140626 .6549988 .44140626 .59999087 .38238526 .56799319 .34036256 .55999758 .42539979 .4889984 .44140626 .43798829 .44140626 .35499574 .44140626 .29899598 .39038087 .2689972 .3503723 .2619934 .41940309 .20298767 .44140626 .1619873 .44140626 .11898804 .44140626 .09599304 .4104004 .08299255 .38739015 .06098938 .3503723 .04699707 .29335023 .04699707 .28834535 .04699707 .27534486 .06098938 .27534486 .06399536 .27534486 .07798767 .27534486 .07899475 .27833558 .085998538 .3053589 .100997928 .36437989 .11999512 .4133911 .15899658 .4133911 .18499756 .4133911 .19198609 .39138795 .19198609 .36437989 .19198609 .34536744 .18299866 .3083496 .17599488 .28134156 .16899109 .2543335 .15899658 .21331787 .1539917 .19129944L.12199402 .06324768C.117996219 .050247194 .11199951 .025222779 .11199951 .022232056 .11199951 .00022888184 .12998963-.009765625 .1459961-.009765625 .1639862-.009765625 .17999268 .0032196046 .18499756 .01222229 .18998719 .021224976 .19799805 .053237916 .20298767 .07424927 .20799256 .09326172 .21899414 .13928223 .22499085 .16429138 .23098755 .18629456 .23699951 .20831299 .24198914 .23132324 .25299073 .27233888 .25498963 .28033448 .28399659 .32136537 .31199647 .3613739 .35899354 .4133911 .43399049 .4133911 .49198915 .4133911 .49299623 .36238099 .49299623 .34336854 .49299623 .31835938 .48999024 .3053589 .47599793 .24932862L.43399049 .08125305Z"/>
</defs>
<path transform="matrix(1,0,0,-1.00003,-118.469,-22.937142)" stroke-width="1.49442" stroke-linecap="butt" stroke-miterlimit="10" stroke-linejoin="miter" fill="none" stroke="#000000" d="M183.32738-45.7291 233.05405-76.31232 185.3075-153.92478 135.58829-123.33409Z"/>
<path transform="matrix(1,0,0,-1.00003,-118.469,-22.937142)" stroke-width="1.49442" stroke-linecap="butt" stroke-miterlimit="10" stroke-linejoin="miter" fill="none" stroke="#000000" d="M185.3075-153.92478 237.61949-183.51419 222.90699-209.52448 170.59497-179.94254Z"/>
<path transform="matrix(1,0,0,-1.00003,-118.469,-22.937142)" stroke-width="1.49442" stroke-linecap="butt" stroke-miterlimit="10" stroke-linejoin="miter" fill="none" stroke="#000000" d="M253.40053-180.74205 299.832-141.7901 332.33555-180.53282 285.89659-219.48476Z"/>
<path transform="matrix(1,0,0,-1.00003,-118.469,-22.937142)" stroke-width="1.49442" stroke-linecap="butt" stroke-miterlimit="10" stroke-linejoin="miter" fill="none" stroke="#000000" d="M252.09291-79.53278 304.1135-39.64684 351.86006-101.90417 299.832-141.7901Z"/>
<path transform="matrix(1,0,0,-1.00003,-118.469,-22.937142)" stroke-width=".74721" stroke-linecap="butt" stroke-miterlimit="10" stroke-linejoin="miter" fill="none" stroke="#000000" d="M123.28926-62.01823"/>
<use data-text="C" xlink:href="#font_1_2" transform="matrix(9.9626,0,0,-9.962899,5.941004,49.083028)"/>
<use data-text="(" xlink:href="#font_2_1" transform="matrix(9.9626,0,0,-9.962899,15.434004,41.012788)"/>
<use data-text="A" xlink:href="#font_1_1" transform="matrix(9.9626,0,0,-9.962899,20.000004,49.083028)"/>
<use data-text="T" xlink:href="#font_3_1" transform="matrix(6.9738,0,0,-6.9740097,27.472004,44.969907)"/>
<use data-text=")" xlink:href="#font_2_2" transform="matrix(9.9626,0,0,-9.962899,33.748006,41.012788)"/>
<path transform="matrix(1,0,0,-1.00003,-118.469,-22.937142)" stroke-width=".74721" stroke-linecap="butt" stroke-miterlimit="10" stroke-linejoin="miter" fill="none" stroke="#000000" d="M292.86805-180.63744"/>
<use data-text="l" xlink:href="#font_4_72" transform="matrix(8.9664,0,0,-8.966669,143.935,159.97435)" fill="#4a90e2"/>
<use data-text="e" xlink:href="#font_4_50" transform="matrix(8.9664,0,0,-8.966669,146.88494,159.97435)" fill="#4a90e2"/>
<use data-text="f" xlink:href="#font_4_55" transform="matrix(8.9664,0,0,-8.966669,151.7537,159.97435)" fill="#4a90e2"/>
<use data-text="t" xlink:href="#font_4_105" transform="matrix(8.9664,0,0,-8.966669,154.99953,159.97435)" fill="#4a90e2"/>
<use data-text="n" xlink:href="#font_4_77" transform="matrix(8.9664,0,0,-8.966669,162.64788,159.97435)" fill="#4a90e2"/>
<use data-text="u" xlink:href="#font_4_109" transform="matrix(8.9664,0,0,-8.966669,168.25186,159.97435)" fill="#4a90e2"/>
<use data-text="l" xlink:href="#font_4_72" transform="matrix(8.9664,0,0,-8.966669,174.14279,159.97435)" fill="#4a90e2"/>
<use data-text="l" xlink:href="#font_4_72" transform="matrix(8.9664,0,0,-8.966669,177.09275,159.97435)" fill="#4a90e2"/>
<use data-text="s" xlink:href="#font_4_98" transform="matrix(8.9664,0,0,-8.966669,180.04268,159.97435)" fill="#4a90e2"/>
<use data-text="p" xlink:href="#font_4_84" transform="matrix(8.9664,0,0,-8.966669,184.23,159.97435)" fill="#4a90e2"/>
<use data-text="a" xlink:href="#font_4_28" transform="matrix(8.9664,0,0,-8.966669,190.12091,159.97435)" fill="#4a90e2"/>
<use data-text="c" xlink:href="#font_4_43" transform="matrix(8.9664,0,0,-8.966669,195.2766,159.97435)" fill="#4a90e2"/>
<use data-text="e" xlink:href="#font_4_50" transform="matrix(8.9664,0,0,-8.966669,199.99292,159.97435)" fill="#4a90e2"/>
<path transform="matrix(1,0,0,-1.00003,-118.469,-22.937142)" stroke-width=".74721" stroke-linecap="butt" stroke-miterlimit="10" stroke-linejoin="miter" fill="none" stroke="#000000" d="M301.9765-90.71846"/>
<use data-text="C" xlink:href="#font_4_42" transform="matrix(8.9664,0,0,-8.966669,150.206,70.04364)" fill="#d0021b"/>
<use data-text="o" xlink:href="#font_4_81" transform="matrix(8.9664,0,0,-8.966669,157.87226,70.04364)" fill="#d0021b"/>
<use data-text="l" xlink:href="#font_4_72" transform="matrix(8.9664,0,0,-8.966669,163.18038,70.04364)" fill="#d0021b"/>
<use data-text="u" xlink:href="#font_4_109" transform="matrix(8.9664,0,0,-8.966669,166.13031,70.04364)" fill="#d0021b"/>
<use data-text="m" xlink:href="#font_4_75" transform="matrix(8.9664,0,0,-8.966669,172.02124,70.04364)" fill="#d0021b"/>
<use data-text="n" xlink:href="#font_4_77" transform="matrix(8.9664,0,0,-8.966669,180.8621,70.04364)" fill="#d0021b"/>
<use data-text="S" xlink:href="#font_4_97" transform="matrix(8.9664,0,0,-8.966669,190.27683,70.04364)" fill="#d0021b"/>
<use data-text="p" xlink:href="#font_4_84" transform="matrix(8.9664,0,0,-8.966669,196.16776,70.04364)" fill="#d0021b"/>
<use data-text="a" xlink:href="#font_4_28" transform="matrix(8.9664,0,0,-8.966669,202.05869,70.04364)" fill="#d0021b"/>
<use data-text="c" xlink:href="#font_4_43" transform="matrix(8.9664,0,0,-8.966669,207.21436,70.04364)" fill="#d0021b"/>
<use data-text="e" xlink:href="#font_4_50" transform="matrix(8.9664,0,0,-8.966669,211.9307,70.04364)" fill="#d0021b"/>
<path transform="matrix(1,0,0,-1.00003,-118.469,-22.937142)" stroke-width=".74721" stroke-linecap="butt" stroke-miterlimit="10" stroke-linejoin="miter" fill="none" stroke="#000000" d="M204.10723-181.72837"/>
<use data-text="n" xlink:href="#font_4_77" transform="matrix(8.9664,0,0,-8.966669,64.536,161.03838)" fill="#4a90e2"/>
<use data-text="u" xlink:href="#font_4_109" transform="matrix(8.9664,0,0,-8.966669,70.13104,161.03838)" fill="#4a90e2"/>
<use data-text="l" xlink:href="#font_4_72" transform="matrix(8.9664,0,0,-8.966669,76.021968,161.03838)" fill="#4a90e2"/>
<use data-text="l" xlink:href="#font_4_72" transform="matrix(8.9664,0,0,-8.966669,78.97191,161.03838)" fill="#4a90e2"/>
<use data-text="s" xlink:href="#font_4_98" transform="matrix(8.9664,0,0,-8.966669,81.92185,161.03838)" fill="#4a90e2"/>
<use data-text="p" xlink:href="#font_4_84" transform="matrix(8.9664,0,0,-8.966669,86.10916,161.03838)" fill="#4a90e2"/>
<use data-text="a" xlink:href="#font_4_28" transform="matrix(8.9664,0,0,-8.966669,92.00009,161.03838)" fill="#4a90e2"/>
<use data-text="c" xlink:href="#font_4_43" transform="matrix(8.9664,0,0,-8.966669,97.15577,161.03838)" fill="#4a90e2"/>
<use data-text="e" xlink:href="#font_4_50" transform="matrix(8.9664,0,0,-8.966669,101.87209,161.03838)" fill="#4a90e2"/>
<path transform="matrix(1,0,0,-1.00003,-118.469,-22.937142)" stroke-width=".74721" stroke-linecap="butt" stroke-miterlimit="10" stroke-linejoin="miter" fill="none" stroke="#000000" d="M181.21279-103.45088"/>
<use data-text="R" xlink:href="#font_4_95" transform="matrix(8.9664,0,0,-8.966669,37.4,82.77603)" fill="#d0021b"/>
<use data-text="o" xlink:href="#font_4_81" transform="matrix(8.9664,0,0,-8.966669,45.353204,82.77603)" fill="#d0021b"/>
<use data-text="w" xlink:href="#font_4_114" transform="matrix(8.9664,0,0,-8.966669,50.365419,82.77603)" fill="#d0021b"/>
<use data-text="S" xlink:href="#font_4_97" transform="matrix(8.9664,0,0,-8.966669,61.55549,82.77603)" fill="#d0021b"/>
<use data-text="p" xlink:href="#font_4_84" transform="matrix(8.9664,0,0,-8.966669,67.44641,82.77603)" fill="#d0021b"/>
<use data-text="a" xlink:href="#font_4_28" transform="matrix(8.9664,0,0,-8.966669,73.33733,82.77603)" fill="#d0021b"/>
<use data-text="c" xlink:href="#font_4_43" transform="matrix(8.9664,0,0,-8.966669,78.49302,82.77603)" fill="#d0021b"/>
<use data-text="e" xlink:href="#font_4_50" transform="matrix(8.9664,0,0,-8.966669,83.20934,82.77603)" fill="#d0021b"/>
<path transform="matrix(1,0,0,-1.00003,-118.469,-22.937142)" stroke-width=".74721" stroke-linecap="butt" stroke-miterlimit="10" stroke-linejoin="miter" fill="none" stroke="#000000" d="M334.00184-61.27103"/>
<use data-text="C" xlink:href="#font_1_2" transform="matrix(9.9626,0,0,-9.962899,216.65399,46.92896)"/>
<use data-text="(" xlink:href="#font_5_1" transform="matrix(9.9626,0,0,-9.962899,224.48699,46.92896)"/>
<use data-text="A" xlink:href="#font_1_1" transform="matrix(9.9626,0,0,-9.962899,228.361,46.92896)"/>
<use data-text=")" xlink:href="#font_5_2" transform="matrix(9.9626,0,0,-9.962899,235.833,46.92896)"/>
<path transform="matrix(1,0,0,-1.00003,-118.469,-22.937142)" stroke-width=".74721" stroke-linecap="butt" stroke-miterlimit="10" stroke-linejoin="miter" fill="none" stroke="#000000" d="M165.13289-197.26282"/>
<use data-text="N" xlink:href="#font_1_3" transform="matrix(9.9626,0,0,-9.962899,47.784997,182.92504)"/>
<use data-text="(" xlink:href="#font_5_1" transform="matrix(9.9626,0,0,-9.962899,56.875,182.92504)"/>
<use data-text="A" xlink:href="#font_1_1" transform="matrix(9.9626,0,0,-9.962899,60.75,182.92504)"/>
<use data-text=")" xlink:href="#font_5_2" transform="matrix(9.9626,0,0,-9.962899,68.222,182.92504)"/>
<path transform="matrix(1,0,0,-1.00003,-118.469,-22.937142)" stroke-width=".74721" stroke-linecap="butt" stroke-miterlimit="10" stroke-linejoin="miter" fill="none" stroke="#000000" d="M313.08-198.01003"/>
<use data-text="N" xlink:href="#font_1_3" transform="matrix(9.9626,0,0,-9.962899,195.732,185.0791)"/>
<use data-text="(" xlink:href="#font_2_1" transform="matrix(9.9626,0,0,-9.962899,206.48299,177.00887)"/>
<use data-text="A" xlink:href="#font_1_1" transform="matrix(9.9626,0,0,-9.962899,211.049,185.0791)"/>
<use data-text="T" xlink:href="#font_3_1" transform="matrix(6.9738,0,0,-6.9740097,218.521,180.96599)"/>
<use data-text=")" xlink:href="#font_2_2" transform="matrix(9.9626,0,0,-9.962899,224.797,177.00887)"/>
<path transform="matrix(1,0,0,-1.00003,-118.469,-22.937142)" stroke-width=".74721" stroke-linecap="butt" stroke-miterlimit="10" stroke-linejoin="miter" fill="none" stroke="#000000" d="M118.0588-85.18167"/>
<use data-text="d" xlink:href="#font_6_47" transform="matrix(9.9626,0,0,-9.962899,.71100047,70.28265)"/>
<use data-text="i" xlink:href="#font_6_66" transform="matrix(9.9626,0,0,-9.962899,6.250206,70.28265)"/>
<use data-text="m" xlink:href="#font_6_75" transform="matrix(9.9626,0,0,-9.962899,9.01981,70.28265)"/>
<use data-text="r" xlink:href="#font_6_96" transform="matrix(9.9626,0,0,-9.962899,20.62624,70.28265)"/>
<path transform="matrix(1,0,0,-1.00003,-118.469,-22.937142)" stroke-width=".74721" stroke-linecap="butt" stroke-miterlimit="10" stroke-linejoin="miter" fill="none" stroke="#000000" d="M132.25576-181.57146"/>
<use data-text="d" xlink:href="#font_6_47" transform="matrix(9.9626,0,0,-9.962899,14.907999,166.67455)"/>
<use data-text="i" xlink:href="#font_6_66" transform="matrix(9.9626,0,0,-9.962899,20.447205,166.67455)"/>
<use data-text="m" xlink:href="#font_6_75" transform="matrix(9.9626,0,0,-9.962899,23.216809,166.67455)"/>
<use data-text="n" xlink:href="#font_6_77" transform="matrix(9.9626,0,0,-9.962899,34.82324,166.67455)"/>
<use data-text="-" xlink:href="#font_6_64" transform="matrix(9.9626,0,0,-9.962899,40.362443,166.67455)"/>
<use data-text="r" xlink:href="#font_6_96" transform="matrix(9.9626,0,0,-9.962899,43.67999,166.67455)"/>
<path transform="matrix(1,0,0,-1.00003,-118.469,-22.937142)" stroke-width=".74721" stroke-linecap="butt" stroke-miterlimit="10" stroke-linejoin="miter" fill="none" stroke="#000000" d="M350.44038-82.19284"/>
<use data-text="d" xlink:href="#font_6_47" transform="matrix(9.9626,0,0,-9.962899,233.09201,67.293567)"/>
<use data-text="i" xlink:href="#font_6_66" transform="matrix(9.9626,0,0,-9.962899,238.63121,67.293567)"/>
<use data-text="m" xlink:href="#font_6_75" transform="matrix(9.9626,0,0,-9.962899,241.40082,67.293567)"/>
<use data-text="r" xlink:href="#font_6_96" transform="matrix(9.9626,0,0,-9.962899,253.00725,67.293567)"/>
<path transform="matrix(1,0,0,-1.00003,-118.469,-22.937142)" stroke-width=".74721" stroke-linecap="butt" stroke-miterlimit="10" stroke-linejoin="miter" fill="none" stroke="#000000" d="M333.2546-178.58263"/>
<use data-text="d" xlink:href="#font_6_47" transform="matrix(9.9626,0,0,-9.962899,215.906,163.68645)"/>
<use data-text="i" xlink:href="#font_6_66" transform="matrix(9.9626,0,0,-9.962899,221.4452,163.68645)"/>
<use data-text="m" xlink:href="#font_6_75" transform="matrix(9.9626,0,0,-9.962899,224.21482,163.68645)"/>
<use data-text="m" xlink:href="#font_6_75" transform="matrix(9.9626,0,0,-9.962899,235.82125,163.68645)"/>
<use data-text="-" xlink:href="#font_6_64" transform="matrix(9.9626,0,0,-9.962899,244.12009,163.68645)"/>
<use data-text="r" xlink:href="#font_6_96" transform="matrix(9.9626,0,0,-9.962899,247.43764,163.68645)"/>
<path transform="matrix(1,0,0,-1.00003,-118.469,-22.937142)" stroke-width=".74721" stroke-linecap="butt" stroke-miterlimit="10" stroke-linejoin="miter" fill="none" stroke="#000000" d="M225.65671-118.80602"/>
<use data-text="A" xlink:href="#font_7_1" transform="matrix(14.3462,0,0,-14.346631,108.309,106.79674)"/>
<use data-text="m" xlink:href="#font_1_5" transform="matrix(9.9626,0,0,-9.962899,118.839008,108.94881)"/>
<use data-text="n" xlink:href="#font_1_6" transform="matrix(9.9626,0,0,-9.962899,127.58617,108.94881)"/>
<path transform="matrix(1,0,0,-1.00003,-118.469,-22.937142)" stroke-width=".74721" stroke-linecap="butt" stroke-miterlimit="10" stroke-linejoin="miter" fill="none" stroke="#000000" d="M176.341-26.15227"/>
<use data-text="R" xlink:href="#font_1_4" transform="matrix(9.9626,0,0,-9.962899,58.993005,11.452892)"/>
<use data-text="n" xlink:href="#font_3_3" transform="matrix(6.9738,0,0,-6.9740097,66.634,7.3397715)"/>
<path transform="matrix(1,0,0,-1.00003,-118.469,-22.937142)" stroke-width=".74721" stroke-linecap="butt" stroke-miterlimit="10" stroke-linejoin="miter" fill="none" stroke="#000000" d="M295.14704-23.91064"/>
<use data-text="R" xlink:href="#font_1_4" transform="matrix(9.9626,0,0,-9.962899,177.79901,9.2118229)"/>
<use data-text="m" xlink:href="#font_3_2" transform="matrix(6.9738,0,0,-6.9740097,185.44,5.0987017)"/>
</svg>
